<svg viewBox="-16 -32 880 192" width="880" height="192" xmlns="http://www.w3.org/2000/svg"><desc>Generated with https://github.com/Platane/snk</desc><style>:root{--cb:#1b1f230a;--cs:purple;--ce:#ebedf0;--c0:#ebedf0;--c1:#9be9a8;--c2:#40c463;--c3:#30a14e;--c4:#216e39}.c{shape-rendering:geometricPrecision;fill:var(--ce);stroke-width:1px;stroke:var(--cb);animation:none 39500ms linear infinite;width:12px;height:12px}@keyframes c0{70.12%{fill:var(--c2)}70.14%,100%{fill:var(--ce)}}.c.c0{fill:var(--c2);animation-name:c0}@keyframes c1{0.75%{fill:var(--c1)}0.77%,100%{fill:var(--ce)}}.c.c1{fill:var(--c1);animation-name:c1}@keyframes c2{1.51%{fill:var(--c1)}1.53%,100%{fill:var(--ce)}}.c.c2{fill:var(--c1);animation-name:c2}@keyframes c3{6.32%{fill:var(--c1)}6.34%,100%{fill:var(--ce)}}.c.c3{fill:var(--c1);animation-name:c3}@keyframes c4{42.52%{fill:var(--c2)}42.54%,100%{fill:var(--ce)}}.c.c4{fill:var(--c2);animation-name:c4}@keyframes c5{5.31%{fill:var(--c1)}5.33%,100%{fill:var(--ce)}}.c.c5{fill:var(--c1);animation-name:c5}@keyframes c6{42.02%{fill:var(--c2)}42.04%,100%{fill:var(--ce)}}.c.c6{fill:var(--c2);animation-name:c6}@keyframes c7{41.76%{fill:var(--c1)}41.78%,100%{fill:var(--ce)}}.c.c7{fill:var(--c1);animation-name:c7}@keyframes c8{7.08%{fill:var(--c1)}7.1%,100%{fill:var(--ce)}}.c.c8{fill:var(--c1);animation-name:c8}@keyframes c9{76.19%{fill:var(--c3)}76.21%,100%{fill:var(--ce)}}.c.c9{fill:var(--c3);animation-name:c9}@keyframes ca{8.6%{fill:var(--c1)}8.62%,100%{fill:var(--ce)}}.c.ca{fill:var(--c1);animation-name:ca}@keyframes cb{77.21%{fill:var(--c3)}77.23%,100%{fill:var(--ce)}}.c.cb{fill:var(--c3);animation-name:cb}@keyframes cc{11.38%{fill:var(--c1)}11.4%,100%{fill:var(--ce)}}.c.cc{fill:var(--c1);animation-name:cc}@keyframes cd{10.62%{fill:var(--c1)}10.64%,100%{fill:var(--ce)}}.c.cd{fill:var(--c1);animation-name:cd}@keyframes ce{11.89%{fill:var(--c1)}11.91%,100%{fill:var(--ce)}}.c.ce{fill:var(--c1);animation-name:ce}@keyframes cf{12.14%{fill:var(--c1)}12.16%,100%{fill:var(--ce)}}.c.cf{fill:var(--c1);animation-name:cf}@keyframes cg{10.37%{fill:var(--c1)}10.39%,100%{fill:var(--ce)}}.c.cg{fill:var(--c1);animation-name:cg}@keyframes ch{9.61%{fill:var(--c1)}9.63%,100%{fill:var(--ce)}}.c.ch{fill:var(--c1);animation-name:ch}@keyframes ci{9.86%{fill:var(--c1)}9.88%,100%{fill:var(--ce)}}.c.ci{fill:var(--c1);animation-name:ci}@keyframes cj{10.12%{fill:var(--c1)}10.14%,100%{fill:var(--ce)}}.c.cj{fill:var(--c1);animation-name:cj}@keyframes ck{37.46%{fill:var(--c1)}37.48%,100%{fill:var(--ce)}}.c.ck{fill:var(--c1);animation-name:ck}@keyframes cl{13.41%{fill:var(--c1)}13.43%,100%{fill:var(--ce)}}.c.cl{fill:var(--c1);animation-name:cl}@keyframes cm{47.08%{fill:var(--c2)}47.1%,100%{fill:var(--ce)}}.c.cm{fill:var(--c2);animation-name:cm}@keyframes cn{37.21%{fill:var(--c1)}37.23%,100%{fill:var(--ce)}}.c.cn{fill:var(--c1);animation-name:cn}@keyframes co{14.17%{fill:var(--c1)}14.19%,100%{fill:var(--ce)}}.c.co{fill:var(--c1);animation-name:co}@keyframes cp{14.93%{fill:var(--c1)}14.95%,100%{fill:var(--ce)}}.c.cp{fill:var(--c1);animation-name:cp}@keyframes cq{15.18%{fill:var(--c1)}15.2%,100%{fill:var(--ce)}}.c.cq{fill:var(--c1);animation-name:cq}@keyframes cr{86.83%{fill:var(--c4)}86.85%,100%{fill:var(--ce)}}.c.cr{fill:var(--c4);animation-name:cr}@keyframes cs{80.5%{fill:var(--c3)}80.52%,100%{fill:var(--ce)}}.c.cs{fill:var(--c3);animation-name:cs}@keyframes ct{87.33%{fill:var(--c4)}87.35%,100%{fill:var(--ce)}}.c.ct{fill:var(--c4);animation-name:ct}@keyframes cu{16.19%{fill:var(--c1)}16.21%,100%{fill:var(--ce)}}.c.cu{fill:var(--c1);animation-name:cu}@keyframes cv{15.94%{fill:var(--c1)}15.96%,100%{fill:var(--ce)}}.c.cv{fill:var(--c1);animation-name:cv}@keyframes cw{49.86%{fill:var(--c2)}49.88%,100%{fill:var(--ce)}}.c.cw{fill:var(--c2);animation-name:cw}@keyframes cx{34.17%{fill:var(--c1)}34.19%,100%{fill:var(--ce)}}.c.cx{fill:var(--c1);animation-name:cx}@keyframes cy{87.58%{fill:var(--c4)}87.6%,100%{fill:var(--ce)}}.c.cy{fill:var(--c4);animation-name:cy}@keyframes cz{16.45%{fill:var(--c1)}16.47%,100%{fill:var(--ce)}}.c.cz{fill:var(--c1);animation-name:cz}@keyframes c10{88.6%{fill:var(--c4)}88.62%,100%{fill:var(--ce)}}.c.c10{fill:var(--c4);animation-name:c10}@keyframes c11{33.91%{fill:var(--c1)}33.93%,100%{fill:var(--ce)}}.c.c11{fill:var(--c1);animation-name:c11}@keyframes c12{16.95%{fill:var(--c1)}16.97%,100%{fill:var(--ce)}}.c.c12{fill:var(--c1);animation-name:c12}@keyframes c13{17.21%{fill:var(--c1)}17.23%,100%{fill:var(--ce)}}.c.c13{fill:var(--c1);animation-name:c13}@keyframes c14{17.46%{fill:var(--c1)}17.48%,100%{fill:var(--ce)}}.c.c14{fill:var(--c1);animation-name:c14}@keyframes c15{81.51%{fill:var(--c3)}81.53%,100%{fill:var(--ce)}}.c.c15{fill:var(--c3);animation-name:c15}@keyframes c16{81.26%{fill:var(--c3)}81.28%,100%{fill:var(--ce)}}.c.c16{fill:var(--c3);animation-name:c16}@keyframes c17{18.22%{fill:var(--c1)}18.24%,100%{fill:var(--ce)}}.c.c17{fill:var(--c1);animation-name:c17}@keyframes c18{32.65%{fill:var(--c1)}32.67%,100%{fill:var(--ce)}}.c.c18{fill:var(--c1);animation-name:c18}@keyframes c19{20.5%{fill:var(--c1)}20.52%,100%{fill:var(--ce)}}.c.c19{fill:var(--c1);animation-name:c19}@keyframes c1a{20.24%{fill:var(--c1)}20.26%,100%{fill:var(--ce)}}.c.c1a{fill:var(--c1);animation-name:c1a}@keyframes c1b{19.23%{fill:var(--c1)}19.25%,100%{fill:var(--ce)}}.c.c1b{fill:var(--c1);animation-name:c1b}@keyframes c1c{52.4%{fill:var(--c2)}52.42%,100%{fill:var(--ce)}}.c.c1c{fill:var(--c2);animation-name:c1c}@keyframes c1d{21.26%{fill:var(--c1)}21.28%,100%{fill:var(--ce)}}.c.c1d{fill:var(--c1);animation-name:c1d}@keyframes c1e{21%{fill:var(--c1)}21.02%,100%{fill:var(--ce)}}.c.c1e{fill:var(--c1);animation-name:c1e}@keyframes c1f{83.53%{fill:var(--c3)}83.55%,100%{fill:var(--ce)}}.c.c1f{fill:var(--c3);animation-name:c1f}@keyframes c1g{19.99%{fill:var(--c1)}20.01%,100%{fill:var(--ce)}}.c.c1g{fill:var(--c1);animation-name:c1g}@keyframes c1h{19.74%{fill:var(--c1)}19.76%,100%{fill:var(--ce)}}.c.c1h{fill:var(--c1);animation-name:c1h}@keyframes c1i{19.48%{fill:var(--c1)}19.5%,100%{fill:var(--ce)}}.c.c1i{fill:var(--c1);animation-name:c1i}@keyframes c1j{29.36%{fill:var(--c1)}29.38%,100%{fill:var(--ce)}}.c.c1j{fill:var(--c1);animation-name:c1j}@keyframes c1k{84.29%{fill:var(--c4)}84.31%,100%{fill:var(--ce)}}.c.c1k{fill:var(--c4);animation-name:c1k}@keyframes c1l{57.21%{fill:var(--c2)}57.23%,100%{fill:var(--ce)}}.c.c1l{fill:var(--c2);animation-name:c1l}@keyframes c1m{30.62%{fill:var(--c1)}30.64%,100%{fill:var(--ce)}}.c.c1m{fill:var(--c1);animation-name:c1m}@keyframes c1n{28.6%{fill:var(--c1)}28.62%,100%{fill:var(--ce)}}.c.c1n{fill:var(--c1);animation-name:c1n}@keyframes c1o{28.34%{fill:var(--c1)}28.36%,100%{fill:var(--ce)}}.c.c1o{fill:var(--c1);animation-name:c1o}@keyframes c1p{22.52%{fill:var(--c1)}22.54%,100%{fill:var(--ce)}}.c.c1p{fill:var(--c1);animation-name:c1p}@keyframes c1q{25.05%{fill:var(--c1)}25.07%,100%{fill:var(--ce)}}.c.c1q{fill:var(--c1);animation-name:c1q}@keyframes c1r{26.07%{fill:var(--c1)}26.09%,100%{fill:var(--ce)}}.c.c1r{fill:var(--c1);animation-name:c1r}@keyframes c1s{53.91%{fill:var(--c2)}53.93%,100%{fill:var(--ce)}}.c.c1s{fill:var(--c2);animation-name:c1s}@keyframes c1t{25.56%{fill:var(--c1)}25.58%,100%{fill:var(--ce)}}.c.c1t{fill:var(--c1);animation-name:c1t}@keyframes c1u{26.83%{fill:var(--c1)}26.85%,100%{fill:var(--ce)}}.c.c1u{fill:var(--c1);animation-name:c1u}@keyframes c1v{23.53%{fill:var(--c1)}23.55%,100%{fill:var(--ce)}}.c.c1v{fill:var(--c1);animation-name:c1v}@keyframes c1w{55.69%{fill:var(--c2)}55.71%,100%{fill:var(--ce)}}.c.c1w{fill:var(--c2);animation-name:c1w}.u{transform-origin:0 0;transform:scale(0,1);animation:none linear 39500ms infinite}@keyframes u0{0.75%{transform:scale(0.000,1)}0.77%,1.51%{transform:scale(0.020,1)}1.53%,5.31%{transform:scale(0.041,1)}5.33%,6.32%{transform:scale(0.061,1)}6.34%,7.08%{transform:scale(0.082,1)}7.1%,8.6%{transform:scale(0.102,1)}8.62%,9.61%{transform:scale(0.122,1)}9.63%,9.86%{transform:scale(0.143,1)}9.88%,10.12%{transform:scale(0.163,1)}10.14%,10.37%{transform:scale(0.184,1)}10.39%,10.62%{transform:scale(0.204,1)}10.64%,11.38%{transform:scale(0.224,1)}11.4%,11.89%{transform:scale(0.245,1)}11.91%,12.14%{transform:scale(0.265,1)}12.16%,13.41%{transform:scale(0.286,1)}13.43%,14.17%{transform:scale(0.306,1)}14.19%,14.93%{transform:scale(0.327,1)}14.95%,15.18%{transform:scale(0.347,1)}15.2%,15.94%{transform:scale(0.367,1)}15.96%,16.19%{transform:scale(0.388,1)}16.21%,16.45%{transform:scale(0.408,1)}16.47%,16.95%{transform:scale(0.429,1)}16.97%,17.21%{transform:scale(0.449,1)}17.23%,17.46%{transform:scale(0.469,1)}17.48%,18.22%{transform:scale(0.490,1)}18.24%,19.23%{transform:scale(0.510,1)}19.25%,19.48%{transform:scale(0.531,1)}19.5%,19.74%{transform:scale(0.551,1)}19.76%,19.99%{transform:scale(0.571,1)}20.01%,20.24%{transform:scale(0.592,1)}20.26%,20.5%{transform:scale(0.612,1)}20.52%,21%{transform:scale(0.633,1)}21.02%,21.26%{transform:scale(0.653,1)}21.28%,22.52%{transform:scale(0.673,1)}22.54%,23.53%{transform:scale(0.694,1)}23.55%,25.05%{transform:scale(0.714,1)}25.07%,25.56%{transform:scale(0.735,1)}25.58%,26.07%{transform:scale(0.755,1)}26.09%,26.83%{transform:scale(0.776,1)}26.85%,28.34%{transform:scale(0.796,1)}28.36%,28.6%{transform:scale(0.816,1)}28.62%,29.36%{transform:scale(0.837,1)}29.38%,30.62%{transform:scale(0.857,1)}30.64%,32.65%{transform:scale(0.878,1)}32.67%,33.91%{transform:scale(0.898,1)}33.93%,34.17%{transform:scale(0.918,1)}34.19%,37.21%{transform:scale(0.939,1)}37.23%,37.46%{transform:scale(0.959,1)}37.48%,41.76%{transform:scale(0.980,1)}41.78%,100%{transform:scale(1.000,1)}}.u.u0{fill:var(--c1);animation-name:u0;transform-origin:0.0px 0}@keyframes u1{42.02%{transform:scale(0.000,1)}42.04%,42.52%{transform:scale(0.111,1)}42.54%,47.08%{transform:scale(0.222,1)}47.1%,49.86%{transform:scale(0.333,1)}49.88%,52.4%{transform:scale(0.444,1)}52.42%,53.91%{transform:scale(0.556,1)}53.93%,55.69%{transform:scale(0.667,1)}55.71%,57.21%{transform:scale(0.778,1)}57.23%,70.12%{transform:scale(0.889,1)}70.14%,100%{transform:scale(1.000,1)}}.u.u1{fill:var(--c2);animation-name:u1;transform-origin:602.2px 0}@keyframes u2{76.19%{transform:scale(0.000,1)}76.21%,77.21%{transform:scale(0.167,1)}77.23%,80.5%{transform:scale(0.333,1)}80.52%,81.26%{transform:scale(0.500,1)}81.28%,81.51%{transform:scale(0.667,1)}81.53%,83.53%{transform:scale(0.833,1)}83.55%,100%{transform:scale(1.000,1)}}.u.u2{fill:var(--c3);animation-name:u2;transform-origin:712.8px 0}@keyframes u3{84.29%{transform:scale(0.000,1)}84.31%,86.83%{transform:scale(0.200,1)}86.85%,87.33%{transform:scale(0.400,1)}87.35%,87.58%{transform:scale(0.600,1)}87.6%,88.6%{transform:scale(0.800,1)}88.62%,100%{transform:scale(1.000,1)}}.u.u3{fill:var(--c4);animation-name:u3;transform-origin:786.6px 0}.s{shape-rendering:geometricPrecision;fill:var(--cs);animation:none linear 39500ms infinite}@keyframes s0{0%,99.75%{transform:translate(0px,-16px)}0.25%{transform:translate(0px,0px)}0.51%{transform:translate(16px,0px)}1.52%{transform:translate(16px,64px)}5.57%{transform:translate(272px,64px)}6.08%{transform:translate(272px,32px)}6.33%{transform:translate(256px,32px)}6.58%{transform:translate(256px,16px)}6.84%{transform:translate(272px,16px)}7.09%{transform:translate(272px,0px)}9.62%{transform:translate(432px,0px)}10.13%{transform:translate(432px,32px)}10.89%{transform:translate(384px,32px)}11.39%{transform:translate(384px,64px)}11.65%{transform:translate(400px,64px)}12.15%{transform:translate(400px,96px)}13.92%{transform:translate(512px,96px)}14.18%{transform:translate(512px,80px)}14.68%{transform:translate(544px,80px)}14.94%{transform:translate(544px,96px)}15.19%{transform:translate(560px,96px)}15.44%{transform:translate(560px,80px)}15.7%{transform:translate(576px,80px)}16.2%,49.11%{transform:translate(576px,48px)}16.71%,35.44%,59.75%{transform:translate(608px,48px)}17.47%{transform:translate(608px,96px)}17.97%{transform:translate(640px,96px)}18.23%{transform:translate(640px,80px)}19.49%,29.11%{transform:translate(720px,80px)}20%{transform:translate(720px,48px)}20.25%,31.9%{transform:translate(704px,48px)}20.76%{transform:translate(704px,16px)}21.01%{transform:translate(720px,16px)}21.52%{transform:translate(720px,-16px)}22.28%{transform:translate(768px,-16px)}22.53%{transform:translate(768px,0px)}23.8%{transform:translate(848px,0px)}24.3%{transform:translate(848px,32px)}25.06%{transform:translate(800px,32px)}25.32%{transform:translate(800px,48px)}25.57%{transform:translate(816px,48px)}25.82%{transform:translate(816px,64px)}26.08%{transform:translate(800px,64px)}26.33%{transform:translate(800px,80px)}26.58%{transform:translate(816px,80px)}27.09%{transform:translate(816px,112px)}27.59%{transform:translate(784px,112px)}27.85%{transform:translate(784px,96px)}28.35%{transform:translate(752px,96px)}28.61%{transform:translate(752px,80px)}29.37%{transform:translate(720px,96px)}29.62%{transform:translate(736px,96px)}30.63%,83.8%{transform:translate(736px,32px)}30.89%{transform:translate(752px,32px)}31.14%{transform:translate(752px,48px)}32.15%{transform:translate(704px,32px)}33.67%,59.49%{transform:translate(608px,32px)}33.92%{transform:translate(608px,16px)}34.18%{transform:translate(592px,16px)}34.43%{transform:translate(592px,0px)}34.68%{transform:translate(608px,0px)}40.76%{transform:translate(272px,48px)}41.52%{transform:translate(272px,96px)}41.77%{transform:translate(256px,96px)}42.53%{transform:translate(256px,48px)}46.33%{transform:translate(496px,48px)}47.09%{transform:translate(496px,0px)}48.1%{transform:translate(560px,0px)}48.86%{transform:translate(560px,48px)}50.13%{transform:translate(576px,112px)}52.15%{transform:translate(704px,112px)}52.41%{transform:translate(704px,96px)}54.43%{transform:translate(832px,96px)}55.7%{transform:translate(832px,16px)}58.73%{transform:translate(640px,16px)}58.99%{transform:translate(640px,32px)}69.37%{transform:translate(0px,48px)}70.13%{transform:translate(0px,96px)}75.19%{transform:translate(320px,96px)}76.2%{transform:translate(320px,32px)}76.96%{transform:translate(368px,32px)}77.22%{transform:translate(368px,16px)}81.27%{transform:translate(624px,16px)}81.52%{transform:translate(624px,0px)}83.04%{transform:translate(720px,0px)}83.54%{transform:translate(720px,32px)}84.3%{transform:translate(736px,0px)}86.84%{transform:translate(576px,0px)}87.34%{transform:translate(576px,32px)}87.59%{transform:translate(592px,32px)}88.61%{transform:translate(592px,96px)}95.44%{transform:translate(160px,96px)}95.7%{transform:translate(160px,80px)}96.71%{transform:translate(96px,80px)}97.47%{transform:translate(96px,32px)}97.97%{transform:translate(64px,32px)}98.73%{transform:translate(64px,-16px)}}.s.s0{transform:translate(0px,-16px);animation-name:s0}@keyframes s1{0%,99.75%{transform:translate(16px,-16px)}0.25%{transform:translate(0px,-16px)}0.51%{transform:translate(0px,0px)}0.76%{transform:translate(16px,0px)}1.77%{transform:translate(16px,64px)}5.82%{transform:translate(272px,64px)}6.33%{transform:translate(272px,32px)}6.58%{transform:translate(256px,32px)}6.84%{transform:translate(256px,16px)}7.09%{transform:translate(272px,16px)}7.34%{transform:translate(272px,0px)}9.87%{transform:translate(432px,0px)}10.38%{transform:translate(432px,32px)}11.14%{transform:translate(384px,32px)}11.65%{transform:translate(384px,64px)}11.9%{transform:translate(400px,64px)}12.41%{transform:translate(400px,96px)}14.18%{transform:translate(512px,96px)}14.43%{transform:translate(512px,80px)}14.94%{transform:translate(544px,80px)}15.19%{transform:translate(544px,96px)}15.44%{transform:translate(560px,96px)}15.7%{transform:translate(560px,80px)}15.95%{transform:translate(576px,80px)}16.46%,49.37%{transform:translate(576px,48px)}16.96%,35.7%,60%{transform:translate(608px,48px)}17.72%{transform:translate(608px,96px)}18.23%{transform:translate(640px,96px)}18.48%{transform:translate(640px,80px)}19.75%,29.37%{transform:translate(720px,80px)}20.25%{transform:translate(720px,48px)}20.51%,32.15%{transform:translate(704px,48px)}21.01%{transform:translate(704px,16px)}21.27%{transform:translate(720px,16px)}21.77%{transform:translate(720px,-16px)}22.53%{transform:translate(768px,-16px)}22.78%{transform:translate(768px,0px)}24.05%{transform:translate(848px,0px)}24.56%{transform:translate(848px,32px)}25.32%{transform:translate(800px,32px)}25.57%{transform:translate(800px,48px)}25.82%{transform:translate(816px,48px)}26.08%{transform:translate(816px,64px)}26.33%{transform:translate(800px,64px)}26.58%{transform:translate(800px,80px)}26.84%{transform:translate(816px,80px)}27.34%{transform:translate(816px,112px)}27.85%{transform:translate(784px,112px)}28.1%{transform:translate(784px,96px)}28.61%{transform:translate(752px,96px)}28.86%{transform:translate(752px,80px)}29.62%{transform:translate(720px,96px)}29.87%{transform:translate(736px,96px)}30.89%,84.05%{transform:translate(736px,32px)}31.14%{transform:translate(752px,32px)}31.39%{transform:translate(752px,48px)}32.41%{transform:translate(704px,32px)}33.92%,59.75%{transform:translate(608px,32px)}34.18%{transform:translate(608px,16px)}34.43%{transform:translate(592px,16px)}34.68%{transform:translate(592px,0px)}34.94%{transform:translate(608px,0px)}41.01%{transform:translate(272px,48px)}41.77%{transform:translate(272px,96px)}42.03%{transform:translate(256px,96px)}42.78%{transform:translate(256px,48px)}46.58%{transform:translate(496px,48px)}47.34%{transform:translate(496px,0px)}48.35%{transform:translate(560px,0px)}49.11%{transform:translate(560px,48px)}50.38%{transform:translate(576px,112px)}52.41%{transform:translate(704px,112px)}52.66%{transform:translate(704px,96px)}54.68%{transform:translate(832px,96px)}55.95%{transform:translate(832px,16px)}58.99%{transform:translate(640px,16px)}59.24%{transform:translate(640px,32px)}69.62%{transform:translate(0px,48px)}70.38%{transform:translate(0px,96px)}75.44%{transform:translate(320px,96px)}76.46%{transform:translate(320px,32px)}77.22%{transform:translate(368px,32px)}77.47%{transform:translate(368px,16px)}81.52%{transform:translate(624px,16px)}81.77%{transform:translate(624px,0px)}83.29%{transform:translate(720px,0px)}83.8%{transform:translate(720px,32px)}84.56%{transform:translate(736px,0px)}87.09%{transform:translate(576px,0px)}87.59%{transform:translate(576px,32px)}87.85%{transform:translate(592px,32px)}88.86%{transform:translate(592px,96px)}95.7%{transform:translate(160px,96px)}95.95%{transform:translate(160px,80px)}96.96%{transform:translate(96px,80px)}97.72%{transform:translate(96px,32px)}98.23%{transform:translate(64px,32px)}98.99%{transform:translate(64px,-16px)}}.s.s1{transform:translate(16px,-16px);animation-name:s1}@keyframes s2{0%,99.75%{transform:translate(32px,-16px)}0.51%{transform:translate(0px,-16px)}0.76%{transform:translate(0px,0px)}1.01%{transform:translate(16px,0px)}2.03%{transform:translate(16px,64px)}6.08%{transform:translate(272px,64px)}6.58%{transform:translate(272px,32px)}6.84%{transform:translate(256px,32px)}7.09%{transform:translate(256px,16px)}7.34%{transform:translate(272px,16px)}7.59%{transform:translate(272px,0px)}10.13%{transform:translate(432px,0px)}10.63%{transform:translate(432px,32px)}11.39%{transform:translate(384px,32px)}11.9%{transform:translate(384px,64px)}12.15%{transform:translate(400px,64px)}12.66%{transform:translate(400px,96px)}14.43%{transform:translate(512px,96px)}14.68%{transform:translate(512px,80px)}15.19%{transform:translate(544px,80px)}15.44%{transform:translate(544px,96px)}15.7%{transform:translate(560px,96px)}15.95%{transform:translate(560px,80px)}16.2%{transform:translate(576px,80px)}16.71%,49.62%{transform:translate(576px,48px)}17.22%,35.95%,60.25%{transform:translate(608px,48px)}17.97%{transform:translate(608px,96px)}18.48%{transform:translate(640px,96px)}18.73%{transform:translate(640px,80px)}20%,29.62%{transform:translate(720px,80px)}20.51%{transform:translate(720px,48px)}20.76%,32.41%{transform:translate(704px,48px)}21.27%{transform:translate(704px,16px)}21.52%{transform:translate(720px,16px)}22.03%{transform:translate(720px,-16px)}22.78%{transform:translate(768px,-16px)}23.04%{transform:translate(768px,0px)}24.3%{transform:translate(848px,0px)}24.81%{transform:translate(848px,32px)}25.57%{transform:translate(800px,32px)}25.82%{transform:translate(800px,48px)}26.08%{transform:translate(816px,48px)}26.33%{transform:translate(816px,64px)}26.58%{transform:translate(800px,64px)}26.84%{transform:translate(800px,80px)}27.09%{transform:translate(816px,80px)}27.59%{transform:translate(816px,112px)}28.1%{transform:translate(784px,112px)}28.35%{transform:translate(784px,96px)}28.86%{transform:translate(752px,96px)}29.11%{transform:translate(752px,80px)}29.87%{transform:translate(720px,96px)}30.13%{transform:translate(736px,96px)}31.14%,84.3%{transform:translate(736px,32px)}31.39%{transform:translate(752px,32px)}31.65%{transform:translate(752px,48px)}32.66%{transform:translate(704px,32px)}34.18%,60%{transform:translate(608px,32px)}34.43%{transform:translate(608px,16px)}34.68%{transform:translate(592px,16px)}34.94%{transform:translate(592px,0px)}35.19%{transform:translate(608px,0px)}41.27%{transform:translate(272px,48px)}42.03%{transform:translate(272px,96px)}42.28%{transform:translate(256px,96px)}43.04%{transform:translate(256px,48px)}46.84%{transform:translate(496px,48px)}47.59%{transform:translate(496px,0px)}48.61%{transform:translate(560px,0px)}49.37%{transform:translate(560px,48px)}50.63%{transform:translate(576px,112px)}52.66%{transform:translate(704px,112px)}52.91%{transform:translate(704px,96px)}54.94%{transform:translate(832px,96px)}56.2%{transform:translate(832px,16px)}59.24%{transform:translate(640px,16px)}59.49%{transform:translate(640px,32px)}69.87%{transform:translate(0px,48px)}70.63%{transform:translate(0px,96px)}75.7%{transform:translate(320px,96px)}76.71%{transform:translate(320px,32px)}77.47%{transform:translate(368px,32px)}77.72%{transform:translate(368px,16px)}81.77%{transform:translate(624px,16px)}82.03%{transform:translate(624px,0px)}83.54%{transform:translate(720px,0px)}84.05%{transform:translate(720px,32px)}84.81%{transform:translate(736px,0px)}87.34%{transform:translate(576px,0px)}87.85%{transform:translate(576px,32px)}88.1%{transform:translate(592px,32px)}89.11%{transform:translate(592px,96px)}95.95%{transform:translate(160px,96px)}96.2%{transform:translate(160px,80px)}97.22%{transform:translate(96px,80px)}97.97%{transform:translate(96px,32px)}98.48%{transform:translate(64px,32px)}99.24%{transform:translate(64px,-16px)}}.s.s2{transform:translate(32px,-16px);animation-name:s2}@keyframes s3{0%,99.75%{transform:translate(48px,-16px)}0.76%{transform:translate(0px,-16px)}1.01%{transform:translate(0px,0px)}1.27%{transform:translate(16px,0px)}2.28%{transform:translate(16px,64px)}6.33%{transform:translate(272px,64px)}6.84%{transform:translate(272px,32px)}7.09%{transform:translate(256px,32px)}7.34%{transform:translate(256px,16px)}7.59%{transform:translate(272px,16px)}7.85%{transform:translate(272px,0px)}10.38%{transform:translate(432px,0px)}10.89%{transform:translate(432px,32px)}11.65%{transform:translate(384px,32px)}12.15%{transform:translate(384px,64px)}12.41%{transform:translate(400px,64px)}12.91%{transform:translate(400px,96px)}14.68%{transform:translate(512px,96px)}14.94%{transform:translate(512px,80px)}15.44%{transform:translate(544px,80px)}15.7%{transform:translate(544px,96px)}15.95%{transform:translate(560px,96px)}16.2%{transform:translate(560px,80px)}16.46%{transform:translate(576px,80px)}16.96%,49.87%{transform:translate(576px,48px)}17.47%,36.2%,60.51%{transform:translate(608px,48px)}18.23%{transform:translate(608px,96px)}18.73%{transform:translate(640px,96px)}18.99%{transform:translate(640px,80px)}20.25%,29.87%{transform:translate(720px,80px)}20.76%{transform:translate(720px,48px)}21.01%,32.66%{transform:translate(704px,48px)}21.52%{transform:translate(704px,16px)}21.77%{transform:translate(720px,16px)}22.28%{transform:translate(720px,-16px)}23.04%{transform:translate(768px,-16px)}23.29%{transform:translate(768px,0px)}24.56%{transform:translate(848px,0px)}25.06%{transform:translate(848px,32px)}25.82%{transform:translate(800px,32px)}26.08%{transform:translate(800px,48px)}26.33%{transform:translate(816px,48px)}26.58%{transform:translate(816px,64px)}26.84%{transform:translate(800px,64px)}27.09%{transform:translate(800px,80px)}27.34%{transform:translate(816px,80px)}27.85%{transform:translate(816px,112px)}28.35%{transform:translate(784px,112px)}28.61%{transform:translate(784px,96px)}29.11%{transform:translate(752px,96px)}29.37%{transform:translate(752px,80px)}30.13%{transform:translate(720px,96px)}30.38%{transform:translate(736px,96px)}31.39%,84.56%{transform:translate(736px,32px)}31.65%{transform:translate(752px,32px)}31.9%{transform:translate(752px,48px)}32.91%{transform:translate(704px,32px)}34.43%,60.25%{transform:translate(608px,32px)}34.68%{transform:translate(608px,16px)}34.94%{transform:translate(592px,16px)}35.19%{transform:translate(592px,0px)}35.44%{transform:translate(608px,0px)}41.52%{transform:translate(272px,48px)}42.28%{transform:translate(272px,96px)}42.53%{transform:translate(256px,96px)}43.29%{transform:translate(256px,48px)}47.09%{transform:translate(496px,48px)}47.85%{transform:translate(496px,0px)}48.86%{transform:translate(560px,0px)}49.62%{transform:translate(560px,48px)}50.89%{transform:translate(576px,112px)}52.91%{transform:translate(704px,112px)}53.16%{transform:translate(704px,96px)}55.19%{transform:translate(832px,96px)}56.46%{transform:translate(832px,16px)}59.49%{transform:translate(640px,16px)}59.75%{transform:translate(640px,32px)}70.13%{transform:translate(0px,48px)}70.89%{transform:translate(0px,96px)}75.95%{transform:translate(320px,96px)}76.96%{transform:translate(320px,32px)}77.72%{transform:translate(368px,32px)}77.97%{transform:translate(368px,16px)}82.03%{transform:translate(624px,16px)}82.28%{transform:translate(624px,0px)}83.8%{transform:translate(720px,0px)}84.3%{transform:translate(720px,32px)}85.06%{transform:translate(736px,0px)}87.59%{transform:translate(576px,0px)}88.1%{transform:translate(576px,32px)}88.35%{transform:translate(592px,32px)}89.37%{transform:translate(592px,96px)}96.2%{transform:translate(160px,96px)}96.46%{transform:translate(160px,80px)}97.47%{transform:translate(96px,80px)}98.23%{transform:translate(96px,32px)}98.73%{transform:translate(64px,32px)}99.49%{transform:translate(64px,-16px)}}.s.s3{transform:translate(48px,-16px);animation-name:s3}</style><rect class="c" x="2" y="2" rx="2" ry="2"/><rect class="c" x="2" y="18" rx="2" ry="2"/><rect class="c" x="2" y="34" rx="2" ry="2"/><rect class="c" x="2" y="50" rx="2" ry="2"/><rect class="c" x="2" y="66" rx="2" ry="2"/><rect class="c" x="2" y="82" rx="2" ry="2"/><rect class="c c0" x="2" y="98" rx="2" ry="2"/><rect class="c" x="18" y="2" rx="2" ry="2"/><rect class="c c1" x="18" y="18" rx="2" ry="2"/><rect class="c" x="18" y="34" rx="2" ry="2"/><rect class="c" x="18" y="50" rx="2" ry="2"/><rect class="c c2" x="18" y="66" rx="2" ry="2"/><rect class="c" x="18" y="82" rx="2" ry="2"/><rect class="c" x="18" y="98" rx="2" ry="2"/><rect class="c" x="34" y="2" rx="2" ry="2"/><rect class="c" x="34" y="18" rx="2" ry="2"/><rect class="c" x="34" y="34" rx="2" ry="2"/><rect class="c" x="34" y="50" rx="2" ry="2"/><rect class="c" x="34" y="66" rx="2" ry="2"/><rect class="c" x="34" y="82" rx="2" ry="2"/><rect class="c" x="34" y="98" rx="2" ry="2"/><rect class="c" x="50" y="2" rx="2" ry="2"/><rect class="c" x="50" y="18" rx="2" ry="2"/><rect class="c" x="50" y="34" rx="2" ry="2"/><rect class="c" x="50" y="50" rx="2" ry="2"/><rect class="c" x="50" y="66" rx="2" ry="2"/><rect class="c" x="50" y="82" rx="2" ry="2"/><rect class="c" x="50" y="98" rx="2" ry="2"/><rect class="c" x="66" y="2" rx="2" ry="2"/><rect class="c" x="66" y="18" rx="2" ry="2"/><rect class="c" x="66" y="34" rx="2" ry="2"/><rect class="c" x="66" y="50" rx="2" ry="2"/><rect class="c" x="66" y="66" rx="2" ry="2"/><rect class="c" x="66" y="82" rx="2" ry="2"/><rect class="c" x="66" y="98" rx="2" ry="2"/><rect class="c" x="82" y="2" rx="2" ry="2"/><rect class="c" x="82" y="18" rx="2" ry="2"/><rect class="c" x="82" y="34" rx="2" ry="2"/><rect class="c" x="82" y="50" rx="2" ry="2"/><rect class="c" x="82" y="66" rx="2" ry="2"/><rect class="c" x="82" y="82" rx="2" ry="2"/><rect class="c" x="82" y="98" rx="2" ry="2"/><rect class="c" x="98" y="2" rx="2" ry="2"/><rect class="c" x="98" y="18" rx="2" ry="2"/><rect class="c" x="98" y="34" rx="2" ry="2"/><rect class="c" x="98" y="50" rx="2" ry="2"/><rect class="c" x="98" y="66" rx="2" ry="2"/><rect class="c" x="98" y="82" rx="2" ry="2"/><rect class="c" x="98" y="98" rx="2" ry="2"/><rect class="c" x="114" y="2" rx="2" ry="2"/><rect class="c" x="114" y="18" rx="2" ry="2"/><rect class="c" x="114" y="34" rx="2" ry="2"/><rect class="c" x="114" y="50" rx="2" ry="2"/><rect class="c" x="114" y="66" rx="2" ry="2"/><rect class="c" x="114" y="82" rx="2" ry="2"/><rect class="c" x="114" y="98" rx="2" ry="2"/><rect class="c" x="130" y="2" rx="2" ry="2"/><rect class="c" x="130" y="18" rx="2" ry="2"/><rect class="c" x="130" y="34" rx="2" ry="2"/><rect class="c" x="130" y="50" rx="2" ry="2"/><rect class="c" x="130" y="66" rx="2" ry="2"/><rect class="c" x="130" y="82" rx="2" ry="2"/><rect class="c" x="130" y="98" rx="2" ry="2"/><rect class="c" x="146" y="2" rx="2" ry="2"/><rect class="c" x="146" y="18" rx="2" ry="2"/><rect class="c" x="146" y="34" rx="2" ry="2"/><rect class="c" x="146" y="50" rx="2" ry="2"/><rect class="c" x="146" y="66" rx="2" ry="2"/><rect class="c" x="146" y="82" rx="2" ry="2"/><rect class="c" x="146" y="98" rx="2" ry="2"/><rect class="c" x="162" y="2" rx="2" ry="2"/><rect class="c" x="162" y="18" rx="2" ry="2"/><rect class="c" x="162" y="34" rx="2" ry="2"/><rect class="c" x="162" y="50" rx="2" ry="2"/><rect class="c" x="162" y="66" rx="2" ry="2"/><rect class="c" x="162" y="82" rx="2" ry="2"/><rect class="c" x="162" y="98" rx="2" ry="2"/><rect class="c" x="178" y="2" rx="2" ry="2"/><rect class="c" x="178" y="18" rx="2" ry="2"/><rect class="c" x="178" y="34" rx="2" ry="2"/><rect class="c" x="178" y="50" rx="2" ry="2"/><rect class="c" x="178" y="66" rx="2" ry="2"/><rect class="c" x="178" y="82" rx="2" ry="2"/><rect class="c" x="178" y="98" rx="2" ry="2"/><rect class="c" x="194" y="2" rx="2" ry="2"/><rect class="c" x="194" y="18" rx="2" ry="2"/><rect class="c" x="194" y="34" rx="2" ry="2"/><rect class="c" x="194" y="50" rx="2" ry="2"/><rect class="c" x="194" y="66" rx="2" ry="2"/><rect class="c" x="194" y="82" rx="2" ry="2"/><rect class="c" x="194" y="98" rx="2" ry="2"/><rect class="c" x="210" y="2" rx="2" ry="2"/><rect class="c" x="210" y="18" rx="2" ry="2"/><rect class="c" x="210" y="34" rx="2" ry="2"/><rect class="c" x="210" y="50" rx="2" ry="2"/><rect class="c" x="210" y="66" rx="2" ry="2"/><rect class="c" x="210" y="82" rx="2" ry="2"/><rect class="c" x="210" y="98" rx="2" ry="2"/><rect class="c" x="226" y="2" rx="2" ry="2"/><rect class="c" x="226" y="18" rx="2" ry="2"/><rect class="c" x="226" y="34" rx="2" ry="2"/><rect class="c" x="226" y="50" rx="2" ry="2"/><rect class="c" x="226" y="66" rx="2" ry="2"/><rect class="c" x="226" y="82" rx="2" ry="2"/><rect class="c" x="226" y="98" rx="2" ry="2"/><rect class="c" x="242" y="2" rx="2" ry="2"/><rect class="c" x="242" y="18" rx="2" ry="2"/><rect class="c" x="242" y="34" rx="2" ry="2"/><rect class="c" x="242" y="50" rx="2" ry="2"/><rect class="c" x="242" y="66" rx="2" ry="2"/><rect class="c" x="242" y="82" rx="2" ry="2"/><rect class="c" x="242" y="98" rx="2" ry="2"/><rect class="c" x="258" y="2" rx="2" ry="2"/><rect class="c" x="258" y="18" rx="2" ry="2"/><rect class="c c3" x="258" y="34" rx="2" ry="2"/><rect class="c c4" x="258" y="50" rx="2" ry="2"/><rect class="c c5" x="258" y="66" rx="2" ry="2"/><rect class="c c6" x="258" y="82" rx="2" ry="2"/><rect class="c c7" x="258" y="98" rx="2" ry="2"/><rect class="c c8" x="274" y="2" rx="2" ry="2"/><rect class="c" x="274" y="18" rx="2" ry="2"/><rect class="c" x="274" y="34" rx="2" ry="2"/><rect class="c" x="274" y="50" rx="2" ry="2"/><rect class="c" x="274" y="66" rx="2" ry="2"/><rect class="c" x="274" y="82" rx="2" ry="2"/><rect class="c" x="274" y="98" rx="2" ry="2"/><rect class="c" x="290" y="2" rx="2" ry="2"/><rect class="c" x="290" y="18" rx="2" ry="2"/><rect class="c" x="290" y="34" rx="2" ry="2"/><rect class="c" x="290" y="50" rx="2" ry="2"/><rect class="c" x="290" y="66" rx="2" ry="2"/><rect class="c" x="290" y="82" rx="2" ry="2"/><rect class="c" x="290" y="98" rx="2" ry="2"/><rect class="c" x="306" y="2" rx="2" ry="2"/><rect class="c" x="306" y="18" rx="2" ry="2"/><rect class="c" x="306" y="34" rx="2" ry="2"/><rect class="c" x="306" y="50" rx="2" ry="2"/><rect class="c" x="306" y="66" rx="2" ry="2"/><rect class="c" x="306" y="82" rx="2" ry="2"/><rect class="c" x="306" y="98" rx="2" ry="2"/><rect class="c" x="322" y="2" rx="2" ry="2"/><rect class="c" x="322" y="18" rx="2" ry="2"/><rect class="c c9" x="322" y="34" rx="2" ry="2"/><rect class="c" x="322" y="50" rx="2" ry="2"/><rect class="c" x="322" y="66" rx="2" ry="2"/><rect class="c" x="322" y="82" rx="2" ry="2"/><rect class="c" x="322" y="98" rx="2" ry="2"/><rect class="c" x="338" y="2" rx="2" ry="2"/><rect class="c" x="338" y="18" rx="2" ry="2"/><rect class="c" x="338" y="34" rx="2" ry="2"/><rect class="c" x="338" y="50" rx="2" ry="2"/><rect class="c" x="338" y="66" rx="2" ry="2"/><rect class="c" x="338" y="82" rx="2" ry="2"/><rect class="c" x="338" y="98" rx="2" ry="2"/><rect class="c" x="354" y="2" rx="2" ry="2"/><rect class="c" x="354" y="18" rx="2" ry="2"/><rect class="c" x="354" y="34" rx="2" ry="2"/><rect class="c" x="354" y="50" rx="2" ry="2"/><rect class="c" x="354" y="66" rx="2" ry="2"/><rect class="c" x="354" y="82" rx="2" ry="2"/><rect class="c" x="354" y="98" rx="2" ry="2"/><rect class="c ca" x="370" y="2" rx="2" ry="2"/><rect class="c cb" x="370" y="18" rx="2" ry="2"/><rect class="c" x="370" y="34" rx="2" ry="2"/><rect class="c" x="370" y="50" rx="2" ry="2"/><rect class="c" x="370" y="66" rx="2" ry="2"/><rect class="c" x="370" y="82" rx="2" ry="2"/><rect class="c" x="370" y="98" rx="2" ry="2"/><rect class="c" x="386" y="2" rx="2" ry="2"/><rect class="c" x="386" y="18" rx="2" ry="2"/><rect class="c" x="386" y="34" rx="2" ry="2"/><rect class="c" x="386" y="50" rx="2" ry="2"/><rect class="c cc" x="386" y="66" rx="2" ry="2"/><rect class="c" x="386" y="82" rx="2" ry="2"/><rect class="c" x="386" y="98" rx="2" ry="2"/><rect class="c" x="402" y="2" rx="2" ry="2"/><rect class="c" x="402" y="18" rx="2" ry="2"/><rect class="c cd" x="402" y="34" rx="2" ry="2"/><rect class="c" x="402" y="50" rx="2" ry="2"/><rect class="c" x="402" y="66" rx="2" ry="2"/><rect class="c ce" x="402" y="82" rx="2" ry="2"/><rect class="c cf" x="402" y="98" rx="2" ry="2"/><rect class="c" x="418" y="2" rx="2" ry="2"/><rect class="c" x="418" y="18" rx="2" ry="2"/><rect class="c cg" x="418" y="34" rx="2" ry="2"/><rect class="c" x="418" y="50" rx="2" ry="2"/><rect class="c" x="418" y="66" rx="2" ry="2"/><rect class="c" x="418" y="82" rx="2" ry="2"/><rect class="c" x="418" y="98" rx="2" ry="2"/><rect class="c ch" x="434" y="2" rx="2" ry="2"/><rect class="c ci" x="434" y="18" rx="2" ry="2"/><rect class="c cj" x="434" y="34" rx="2" ry="2"/><rect class="c" x="434" y="50" rx="2" ry="2"/><rect class="c" x="434" y="66" rx="2" ry="2"/><rect class="c" x="434" y="82" rx="2" ry="2"/><rect class="c" x="434" y="98" rx="2" ry="2"/><rect class="c" x="450" y="2" rx="2" ry="2"/><rect class="c" x="450" y="18" rx="2" ry="2"/><rect class="c" x="450" y="34" rx="2" ry="2"/><rect class="c" x="450" y="50" rx="2" ry="2"/><rect class="c" x="450" y="66" rx="2" ry="2"/><rect class="c" x="450" y="82" rx="2" ry="2"/><rect class="c" x="450" y="98" rx="2" ry="2"/><rect class="c" x="466" y="2" rx="2" ry="2"/><rect class="c" x="466" y="18" rx="2" ry="2"/><rect class="c" x="466" y="34" rx="2" ry="2"/><rect class="c" x="466" y="50" rx="2" ry="2"/><rect class="c" x="466" y="66" rx="2" ry="2"/><rect class="c" x="466" y="82" rx="2" ry="2"/><rect class="c" x="466" y="98" rx="2" ry="2"/><rect class="c" x="482" y="2" rx="2" ry="2"/><rect class="c" x="482" y="18" rx="2" ry="2"/><rect class="c" x="482" y="34" rx="2" ry="2"/><rect class="c ck" x="482" y="50" rx="2" ry="2"/><rect class="c" x="482" y="66" rx="2" ry="2"/><rect class="c" x="482" y="82" rx="2" ry="2"/><rect class="c cl" x="482" y="98" rx="2" ry="2"/><rect class="c cm" x="498" y="2" rx="2" ry="2"/><rect class="c" x="498" y="18" rx="2" ry="2"/><rect class="c" x="498" y="34" rx="2" ry="2"/><rect class="c cn" x="498" y="50" rx="2" ry="2"/><rect class="c" x="498" y="66" rx="2" ry="2"/><rect class="c" x="498" y="82" rx="2" ry="2"/><rect class="c" x="498" y="98" rx="2" ry="2"/><rect class="c" x="514" y="2" rx="2" ry="2"/><rect class="c" x="514" y="18" rx="2" ry="2"/><rect class="c" x="514" y="34" rx="2" ry="2"/><rect class="c" x="514" y="50" rx="2" ry="2"/><rect class="c" x="514" y="66" rx="2" ry="2"/><rect class="c co" x="514" y="82" rx="2" ry="2"/><rect class="c" x="514" y="98" rx="2" ry="2"/><rect class="c" x="530" y="2" rx="2" ry="2"/><rect class="c" x="530" y="18" rx="2" ry="2"/><rect class="c" x="530" y="34" rx="2" ry="2"/><rect class="c" x="530" y="50" rx="2" ry="2"/><rect class="c" x="530" y="66" rx="2" ry="2"/><rect class="c" x="530" y="82" rx="2" ry="2"/><rect class="c" x="530" y="98" rx="2" ry="2"/><rect class="c" x="546" y="2" rx="2" ry="2"/><rect class="c" x="546" y="18" rx="2" ry="2"/><rect class="c" x="546" y="34" rx="2" ry="2"/><rect class="c" x="546" y="50" rx="2" ry="2"/><rect class="c" x="546" y="66" rx="2" ry="2"/><rect class="c" x="546" y="82" rx="2" ry="2"/><rect class="c cp" x="546" y="98" rx="2" ry="2"/><rect class="c" x="562" y="2" rx="2" ry="2"/><rect class="c" x="562" y="18" rx="2" ry="2"/><rect class="c" x="562" y="34" rx="2" ry="2"/><rect class="c" x="562" y="50" rx="2" ry="2"/><rect class="c" x="562" y="66" rx="2" ry="2"/><rect class="c" x="562" y="82" rx="2" ry="2"/><rect class="c cq" x="562" y="98" rx="2" ry="2"/><rect class="c cr" x="578" y="2" rx="2" ry="2"/><rect class="c cs" x="578" y="18" rx="2" ry="2"/><rect class="c ct" x="578" y="34" rx="2" ry="2"/><rect class="c cu" x="578" y="50" rx="2" ry="2"/><rect class="c cv" x="578" y="66" rx="2" ry="2"/><rect class="c" x="578" y="82" rx="2" ry="2"/><rect class="c cw" x="578" y="98" rx="2" ry="2"/><rect class="c" x="594" y="2" rx="2" ry="2"/><rect class="c cx" x="594" y="18" rx="2" ry="2"/><rect class="c cy" x="594" y="34" rx="2" ry="2"/><rect class="c cz" x="594" y="50" rx="2" ry="2"/><rect class="c" x="594" y="66" rx="2" ry="2"/><rect class="c" x="594" y="82" rx="2" ry="2"/><rect class="c c10" x="594" y="98" rx="2" ry="2"/><rect class="c" x="610" y="2" rx="2" ry="2"/><rect class="c c11" x="610" y="18" rx="2" ry="2"/><rect class="c" x="610" y="34" rx="2" ry="2"/><rect class="c" x="610" y="50" rx="2" ry="2"/><rect class="c c12" x="610" y="66" rx="2" ry="2"/><rect class="c c13" x="610" y="82" rx="2" ry="2"/><rect class="c c14" x="610" y="98" rx="2" ry="2"/><rect class="c c15" x="626" y="2" rx="2" ry="2"/><rect class="c c16" x="626" y="18" rx="2" ry="2"/><rect class="c" x="626" y="34" rx="2" ry="2"/><rect class="c" x="626" y="50" rx="2" ry="2"/><rect class="c" x="626" y="66" rx="2" ry="2"/><rect class="c" x="626" y="82" rx="2" ry="2"/><rect class="c" x="626" y="98" rx="2" ry="2"/><rect class="c" x="642" y="2" rx="2" ry="2"/><rect class="c" x="642" y="18" rx="2" ry="2"/><rect class="c" x="642" y="34" rx="2" ry="2"/><rect class="c" x="642" y="50" rx="2" ry="2"/><rect class="c" x="642" y="66" rx="2" ry="2"/><rect class="c c17" x="642" y="82" rx="2" ry="2"/><rect class="c" x="642" y="98" rx="2" ry="2"/><rect class="c" x="658" y="2" rx="2" ry="2"/><rect class="c" x="658" y="18" rx="2" ry="2"/><rect class="c" x="658" y="34" rx="2" ry="2"/><rect class="c" x="658" y="50" rx="2" ry="2"/><rect class="c" x="658" y="66" rx="2" ry="2"/><rect class="c" x="658" y="82" rx="2" ry="2"/><rect class="c" x="658" y="98" rx="2" ry="2"/><rect class="c" x="674" y="2" rx="2" ry="2"/><rect class="c" x="674" y="18" rx="2" ry="2"/><rect class="c c18" x="674" y="34" rx="2" ry="2"/><rect class="c" x="674" y="50" rx="2" ry="2"/><rect class="c" x="674" y="66" rx="2" ry="2"/><rect class="c" x="674" y="82" rx="2" ry="2"/><rect class="c" x="674" y="98" rx="2" ry="2"/><rect class="c" x="690" y="2" rx="2" ry="2"/><rect class="c" x="690" y="18" rx="2" ry="2"/><rect class="c" x="690" y="34" rx="2" ry="2"/><rect class="c" x="690" y="50" rx="2" ry="2"/><rect class="c" x="690" y="66" rx="2" ry="2"/><rect class="c" x="690" y="82" rx="2" ry="2"/><rect class="c" x="690" y="98" rx="2" ry="2"/><rect class="c" x="706" y="2" rx="2" ry="2"/><rect class="c" x="706" y="18" rx="2" ry="2"/><rect class="c c19" x="706" y="34" rx="2" ry="2"/><rect class="c c1a" x="706" y="50" rx="2" ry="2"/><rect class="c" x="706" y="66" rx="2" ry="2"/><rect class="c c1b" x="706" y="82" rx="2" ry="2"/><rect class="c c1c" x="706" y="98" rx="2" ry="2"/><rect class="c c1d" x="722" y="2" rx="2" ry="2"/><rect class="c c1e" x="722" y="18" rx="2" ry="2"/><rect class="c c1f" x="722" y="34" rx="2" ry="2"/><rect class="c c1g" x="722" y="50" rx="2" ry="2"/><rect class="c c1h" x="722" y="66" rx="2" ry="2"/><rect class="c c1i" x="722" y="82" rx="2" ry="2"/><rect class="c c1j" x="722" y="98" rx="2" ry="2"/><rect class="c c1k" x="738" y="2" rx="2" ry="2"/><rect class="c c1l" x="738" y="18" rx="2" ry="2"/><rect class="c c1m" x="738" y="34" rx="2" ry="2"/><rect class="c" x="738" y="50" rx="2" ry="2"/><rect class="c" x="738" y="66" rx="2" ry="2"/><rect class="c" x="738" y="82" rx="2" ry="2"/><rect class="c" x="738" y="98" rx="2" ry="2"/><rect class="c" x="754" y="2" rx="2" ry="2"/><rect class="c" x="754" y="18" rx="2" ry="2"/><rect class="c" x="754" y="34" rx="2" ry="2"/><rect class="c" x="754" y="50" rx="2" ry="2"/><rect class="c" x="754" y="66" rx="2" ry="2"/><rect class="c c1n" x="754" y="82" rx="2" ry="2"/><rect class="c c1o" x="754" y="98" rx="2" ry="2"/><rect class="c c1p" x="770" y="2" rx="2" ry="2"/><rect class="c" x="770" y="18" rx="2" ry="2"/><rect class="c" x="770" y="34" rx="2" ry="2"/><rect class="c" x="770" y="50" rx="2" ry="2"/><rect class="c" x="770" y="66" rx="2" ry="2"/><rect class="c" x="770" y="82" rx="2" ry="2"/><rect class="c" x="770" y="98" rx="2" ry="2"/><rect class="c" x="786" y="2" rx="2" ry="2"/><rect class="c" x="786" y="18" rx="2" ry="2"/><rect class="c" x="786" y="34" rx="2" ry="2"/><rect class="c" x="786" y="50" rx="2" ry="2"/><rect class="c" x="786" y="66" rx="2" ry="2"/><rect class="c" x="786" y="82" rx="2" ry="2"/><rect class="c" x="786" y="98" rx="2" ry="2"/><rect class="c" x="802" y="2" rx="2" ry="2"/><rect class="c" x="802" y="18" rx="2" ry="2"/><rect class="c c1q" x="802" y="34" rx="2" ry="2"/><rect class="c" x="802" y="50" rx="2" ry="2"/><rect class="c c1r" x="802" y="66" rx="2" ry="2"/><rect class="c" x="802" y="82" rx="2" ry="2"/><rect class="c c1s" x="802" y="98" rx="2" ry="2"/><rect class="c" x="818" y="2" rx="2" ry="2"/><rect class="c" x="818" y="18" rx="2" ry="2"/><rect class="c" x="818" y="34" rx="2" ry="2"/><rect class="c c1t" x="818" y="50" rx="2" ry="2"/><rect class="c" x="818" y="66" rx="2" ry="2"/><rect class="c" x="818" y="82" rx="2" ry="2"/><rect class="c c1u" x="818" y="98" rx="2" ry="2"/><rect class="c c1v" x="834" y="2" rx="2" ry="2"/><rect class="c c1w" x="834" y="18" rx="2" ry="2"/><rect class="u u0" height="12" width="602.8" x="0.0" y="144"/><rect class="u u1" height="12" width="111.2" x="602.2" y="144"/><rect class="u u2" height="12" width="74.3" x="712.8" y="144"/><rect class="u u3" height="12" width="62.0" x="786.6" y="144"/><rect class="s s0" x="0.8" y="0.8" width="14.4" height="14.4" rx="4.5" ry="4.5"/><rect class="s s1" x="1.8" y="1.8" width="12.3" height="12.3" rx="4.1" ry="4.1"/><rect class="s s2" x="2.6" y="2.6" width="10.8" height="10.8" rx="3.6" ry="3.6"/><rect class="s s3" x="3.0" y="3.0" width="9.9" height="9.9" rx="3.3" ry="3.3"/></svg>